<?xml version="1.0" encoding="UTF-8"?>
<svg width="100px" height="83px" viewBox="0 0 100 83" version="1.1" xmlns="http://www.w3.org/2000/svg" xmlns:xlink="http://www.w3.org/1999/xlink">
    <!-- Generator: Sketch 55.2 (78181) - https://sketchapp.com -->
    <title>Artboard</title>
    <desc>Created with Sketch.</desc>
    <defs>
        <polygon id="path-1" points="0 0.195668085 99.7896605 0.195668085 99.7896605 82.9547209 0 82.9547209"></polygon>
    </defs>
    <g id="Artboard" stroke="none" stroke-width="1" fill="none" fill-rule="evenodd">
        <g id="Group-48-Copy-2">
            <g id="Group-3">
                <mask id="mask-2" fill="white">
                    <use xlink:href="#path-1"></use>
                </mask>
                <g id="Clip-2"></g>
                <path d="M44.4030605,3.23904851 L0.968896797,73.1939209 C-1.67914591,77.4594145 1.41266904,82.9547209 6.46106762,82.9547209 L93.3286833,82.9547209 C98.3770819,82.9547209 101.468897,77.4594145 98.8204982,73.1939209 L55.3866904,3.23904851 C52.8671174,-0.819121702 46.9226335,-0.819121702 44.4030605,3.23904851" id="Fill-1" fill="#23B0A6" mask="url(#mask-2)"></path>
            </g>
            <path d="M36.2755593,52.9900989 C35.1196879,53.2209227 34.9239461,49.3447106 35.0221488,48.7938488 C35.1203514,48.243341 37.1112769,46.8796394 37.2340302,46.6173074 C37.3567835,46.3553294 39.1751909,41.9756948 39.8881552,39.7467578 C40.6007878,37.5174668 40.9693794,37.2813326 41.1170151,37.1503436 C41.264319,37.0193546 43.4762005,35 43.4762005,35 C43.3531154,35.8128398 45,38.0945264 45,38.0945264 C44.6314084,38.277911 42.6159322,40.3234634 42.1982393,40.900523 C41.7805464,41.4772286 38.7329473,47.9286134 38.7329473,47.9286134 C39.1506402,49.947968 38.1997999,51.0057927 38.0445336,51.2893661 C38.0445336,51.2893661 37.1593829,52.8134407 36.2755593,52.9900989" id="Fill-4" fill="#FFFFFF"></path>
            <path d="M48.7957494,44.6494078 L41,54.6241585 L49.1604248,60 L56.2315172,53.4055676 C56.2315172,53.4055676 64.1641102,52.0272201 65.0201947,52.1336051 C65.8762793,52.2392736 70,43.6228112 70,43.6228112 C70,43.6228112 60.5238552,41.5187538 56.6193008,42.102259 C56.6193008,42.102259 55.1078837,45.1272445 48.7957494,44.6494078" id="Fill-6" fill="#E42F33"></path>
            <polygon id="Fill-8" fill="#FFFFFF" points="43.0590081 55 28 71.5860118 31.1004272 75 50 59.3202807"></polygon>
            <path d="M27.9459418,72 L26.7585338,72.4280401 C25.223186,72.9812791 24.0585641,74.2790641 23.6523932,75.8885538 L22.0168589,82.3675072 C21.8960565,82.8461438 22.4516029,83.1981043 22.8176269,82.87532 L31,75.6662241 L27.9459418,72 Z" id="Fill-10" fill="#15635B"></path>
            <path d="M68.9582035,44 C68.9582035,44 74.1476679,47.1156164 73.9967719,48.9150551 C73.8462151,50.7144938 67.9185474,68 67.9185474,68 L64,65.9278298 L65.8195678,51.5072922 L65.1705457,51.694266 L68.9582035,44 Z" id="Fill-12" fill="#FFFFFF"></path>
            <path d="M65.0160754,65 L64.0207838,66.2475777 C63.104095,67.3976182 62.7810648,68.9132504 63.1485677,70.3389547 L64.7761298,76.6460187 C64.8933446,77.0994632 65.5259599,77.1240205 65.6773049,76.6806064 L69,66.9472865 L65.0160754,65 Z" id="Fill-14" fill="#15635B"></path>
            <path d="M49.2673033,32 C49.2673033,32 45.8943124,33.5809777 47.3763999,37.8716706 C48.8584873,42.1627023 48.9864795,43.593272 48.5773185,44.1701748 C48.1685024,44.7474163 48.6283773,45.023503 49.9572881,44.998435 C51.2865439,44.9730283 55.6817473,44.7223483 56.831952,42.4387891 C56.831952,42.4387891 56.5252538,37.1941572 56.5763126,36.8428664 C56.6273715,36.4915757 57.9052234,35.0362767 55.7583356,33.7063177 L53.100514,32.075204 C53.100514,32.075204 51.1582067,32.8780575 49.2673033,32" id="Fill-16" fill="#15635B"></path>
            <path d="M47,30 C48,29.5532227 50.2989562,30.9626769 52,30.4885254 L53,33.6069637 C53,33.6069637 50.3361169,34.5417602 48.3607516,33.5280569 C48.3607516,33.5280569 49.4434238,32.7119761 47,30 Z" id="Fill-18" fill="#FFFFFF"></path>
            <path d="M53.9084928,25.2874391 C54.4047384,28.0204341 52.8329055,30.5548656 50.3986613,30.948329 C47.9636404,31.3417923 45.587641,29.4455481 45.0913953,26.7125531 C44.595538,23.9795581 46.1669826,21.4451265 48.6016151,21.0516632 C51.036636,20.6581998 53.4122471,22.5548104 53.9084928,25.2874391" id="Fill-20" fill="#FFFFFF"></path>
            <path d="M48,31 C48,31 44.5104549,33.3089173 44.0686915,34.6762228 C43.6265772,36.0431182 45.4462635,39.2026029 45.8880269,38.989756 C46.3297904,38.7773192 47.1613863,37.7750113 47.2915644,37.4707099 C47.4217426,37.1672288 46.4662844,33.7723412 48,31" id="Fill-22" fill="#132824"></path>
            <path d="M57.8441413,24.9018791 L58.7273276,24.3406032 C59.0085618,24.1618655 59.0847583,23.7997733 58.8970379,23.5319965 L58.0055393,22.2593974 C57.8178189,21.9916207 57.4371829,21.9194001 57.156295,22.0981378 L56.2727624,22.6590839 C55.9911818,22.8381514 55.9153317,23.1999138 56.1030521,23.4680203 L56.9945507,24.7402897 C57.1822711,25.0083962 57.5629071,25.0806168 57.8441413,24.9018791" id="Fill-24" fill="#132824"></path>
            <path d="M60.7174956,24.0046956 L59.0145483,24.9650687 C58.9995576,24.9736236 58.9954352,24.9910504 59.0055539,25.0037244 L61.0753994,27.6269276 C61.3797113,28.0119006 61.9947061,28.1158275 62.4504244,27.8591788 L62.5587324,27.7977098 C63.014076,27.5410611 63.137,27.0204762 62.8334376,26.6355031 L60.7632174,24.0123 C60.7530986,23.999626 60.7324864,23.9961406 60.7174956,24.0046956" id="Fill-26" fill="#15635B"></path>
            <path d="M64.3786069,19.1141925 C65.1837507,20.2895808 67.0100959,20.2961472 68.4580733,19.1284841 C69.9056948,17.9612073 70.4264398,16.061582 69.6212961,14.8858075 C68.8165082,13.7104192 66.990163,13.7038528 65.5425416,14.8715159 C64.0945641,16.039179 63.5734631,17.9388042 64.3786069,19.1141925" id="Fill-28" fill="#132824"></path>
            <path d="M60.0620807,18.298083 L62.3920142,10.9934593 C62.7558064,9.85286344 64.3812994,9.63910758 65.0658507,10.6418292 L71.763822,20.4505469 C72.3742407,21.34385 71.7352538,22.5227254 70.6051836,22.588783 L63.5803056,22.9973244 C63.0440195,23.02849 62.5312389,22.785601 62.2401328,22.3624932 L60.2367443,19.4498579 C60.0016897,19.1083905 59.9380442,18.6873152 60.0620807,18.298083" id="Fill-30" fill="#15635B"></path>
            <path d="M60.2070641,24.7542593 L64.3066028,22.1879842 C65.0222339,21.7398579 65.2153097,20.8326038 64.738092,20.1615144 L62.9523363,17.6502467 C62.4755094,16.9791573 61.5081762,16.7979998 60.7929359,17.2457595 L56.6933972,19.8120345 C55.9777661,20.2601609 55.7846903,21.167415 56.261908,21.8388711 L58.0476637,24.3494054 C58.5244906,25.0208615 59.4918238,25.2020189 60.2070641,24.7542593" id="Fill-32" fill="#15635B"></path>
            <path d="M62.7417207,30.0316999 C62.6700499,30.0833785 62.6147311,30.1505278 62.5785478,30.2288686 C61.6036854,32.3539455 61.0550209,34.6310957 60.554021,36.8993586 C60.4733044,37.2644004 60.3898044,37.6386588 60.1747919,37.9510346 C59.8035649,38.4888871 59.1150379,38.741026 58.4581713,38.9049492 C58.2170651,38.9651861 57.9679568,39.0185105 57.7195443,38.9938233 C57.5010527,38.9720985 57.295086,38.8911244 57.0922507,38.8114669 C56.1323487,38.4329294 55.1720988,38.0543918 54.211849,37.6761834 C53.4266012,37.366441 52.6250013,37.0474819 51.987966,36.5135794 C51.1519223,35.8127912 50.6314391,34.6577579 51.3164869,33.6472273 C51.5527223,33.2986435 51.9204701,33.0389339 52.3369263,32.9105603 C52.5421971,32.847361 52.7735617,32.8147738 52.9746575,32.8924563 C52.9746575,32.8924563 56.9475173,35.1587441 57.6433506,35.5734896 C58.3391838,35.987906 60.941948,29.3559281 60.9162022,29.2825247 C60.8904564,29.2094505 60.8386168,28.9655407 60.3233523,28.1610661 C60.0053565,27.6646882 60.2958669,27.1123525 60.5644585,26.762123 C60.7679897,26.4974759 61.0480626,26.2943822 61.3684938,26.1702877 C61.9429041,25.9477735 62.9003707,25.779242 63.4674748,26.7713395 C64.3181309,28.2584984 64.1145997,28.9227495 63.1066852,29.7459864 C62.9247248,29.8944389 62.811304,29.981338 62.7417207,30.0316999" id="Fill-34" fill="#FFFFFF"></path>
            <path d="M52.9046106,37.7499529 C52.7849011,37.9730836 52.5124726,38.0617791 52.283394,37.9547877 C51.4975272,37.5864828 50.7220007,37.1823815 50.0960117,36.5869685 C49.1311772,35.6697859 48.5620601,34.1933844 49.4226956,32.9496594 C49.7197819,32.5208984 50.1695873,32.2086745 50.6710944,32.0646935 C50.9184674,31.9934985 51.1952707,31.9628727 51.431508,32.0690686 C51.431508,32.0690686 53.3257811,32.4377712 54.7666695,33.3195552 C54.9842147,33.4527973 55.0645512,33.7300203 54.9436487,33.9547419 L52.9046106,37.7499529 Z" id="Fill-36" fill="#132824"></path>
            <path d="M51.5980928,19.0663429 C49.7525709,17.5749227 47.7085564,18.2881018 45.8938168,19.3022819 C43.8671394,20.4351463 41.9094568,19.5074773 39.7097617,19.6826441 C37.8398263,19.8313571 36.1319402,20.9602892 34.2566975,20.9999699 C31.4767387,21.0585971 29.1946037,18.7621247 26.4786862,18.157263 C23.3332319,17.4562383 20.0554492,19.1839549 17.9537621,21.6502319 C16.943254,22.8363614 16.1110708,24.2630771 16.0102323,25.8249215 C15.8899337,27.6845494 16.8431231,29.4944872 18.1975437,30.7596205 C19.5519642,32.0247537 21.2711726,32.8144343 23.0063028,33.4471797 C23.7040346,33.7013503 24.4520088,33.963743 24.9017132,34.5593101 C25.1769847,34.9243005 25.3086055,35.3761593 25.5180666,35.7826178 C26.1627255,37.0345242 27.5358985,37.786669 28.9225166,37.9557586 C30.3091347,38.1255631 31.7106133,37.7852391 33.0218679,37.2990618 C35.1957341,36.493652 37.219581,35.2792814 38.9593108,33.7360261 C40.4757807,32.3904591 41.7792513,30.8239675 43.2518475,29.4322851 C43.7369339,28.9736341 44.242188,28.5357171 44.7757476,28.1364083 C45.3146145,28.2940584 45.7968703,28.6433196 46.1110619,29.11341 C46.2426827,29.3107408 46.3590893,29.5481097 46.555459,29.6889581 C46.8894645,29.9295443 47.3359846,29.7904833 47.6158557,29.531308 C47.9311088,29.2396016 47.9986883,28.7977523 47.954107,28.387719 C47.9059876,27.9447973 47.6116099,27.672395 47.2680513,27.4235867 C46.9665971,27.2058793 46.6378989,26.9724428 46.5275073,26.615317 C46.4404677,26.3339777 46.5115854,26.0179625 46.6736347,25.7723715 C47.0278079,25.2347166 47.8759129,24.9587396 48.4126569,25.4102409 C48.5807211,25.5514468 48.6833288,25.7577146 48.8248565,25.9268042 C48.9946898,26.1294972 49.2119349,26.2045687 49.4691616,26.2242303 C50.0706545,26.2710606 50.6908999,26.0050931 51.1830627,25.6762085 C51.7629726,25.2890541 52.2653961,24.7170809 52.5774648,24.0889828 C52.8290304,23.5820715 52.964897,23.0197503 52.9939102,22.4545693 C53.0529981,21.3184875 52.6821954,20.133073 51.8772563,19.3190836 C51.7891552,19.2297128 51.6957469,19.1453467 51.5980928,19.0663429" id="Fill-38" fill="#E42F33"></path>
            <path d="M76.6421337,21.095394 L80,24 L76.1581949,21.5990829 C75.9886095,21.4930778 75.9491273,21.2869933 76.070206,21.1381911 C76.1912847,20.9900473 76.4270498,20.9554804 76.5962592,21.0614855 C76.6124281,21.0713618 76.628597,21.0835425 76.6421337,21.095394" id="Fill-40" fill="#E42E33"></path>
            <path d="M79.3593697,12.1627467 L84,12 L79.4414785,12.9923377 C79.2402748,13.0361541 79.0453587,12.8875956 79.0068933,12.6605848 C78.9676882,12.433574 79.0997281,12.2140745 79.3009318,12.1702581 C79.3197947,12.1660851 79.3405068,12.1635813 79.3593697,12.1627467" id="Fill-42" fill="#E42E33"></path>
            <path d="M73.0638882,4.50873644 L76,1 L73.8906899,4.79309699 C73.7978012,4.96059704 73.5301713,5.04304861 73.2928911,4.97747688 C73.055611,4.91158055 72.9388103,4.72265608 73.0321589,4.55548064 C73.0404361,4.53957463 73.0523921,4.52269478 73.0638882,4.50873644" id="Fill-44" fill="#E42E33"></path>
            <path d="M65.1096082,4.69270644 L64,0 L65.9713919,4.48335361 C66.0583321,4.68126639 65.9404699,4.90167792 65.7078824,4.97565688 C65.4748467,5.04963584 65.2158187,4.94934478 65.1293266,4.751432 C65.1208118,4.73274659 65.1140896,4.71177318 65.1096082,4.69270644" id="Fill-46" fill="#E42E33"></path>
        </g>
    </g>
</svg>